<?xml version="1.0" standalone="no"?>
<!DOCTYPE svg PUBLIC "-//W3C//DTD SVG 20010904//EN"
 "http://www.w3.org/TR/2001/REC-SVG-20010904/DTD/svg10.dtd">
<svg version="1.0" xmlns="http://www.w3.org/2000/svg"
 width="600.000000pt" height="338.000000pt" viewBox="0 0 600.000000 338.000000"
 preserveAspectRatio="xMidYMid meet">

<g transform="translate(0.000000,338.000000) scale(0.100000,-0.100000)"
fill="#000000" stroke="none">
<path d="M5839 2265 c-28 -15 -54 -65 -46 -87 3 -7 6 -3 6 9 1 12 12 34 24 49
33 38 81 37 115 -1 64 -75 -44 -170 -113 -100 -14 13 -25 21 -25 16 0 -19 49
-51 77 -51 45 0 62 9 78 41 23 43 18 77 -14 110 -32 32 -62 36 -102 14z"/>
<path d="M5851 2188 c1 -29 4 -43 6 -30 5 27 29 29 38 2 3 -11 11 -20 16 -20
6 0 5 9 -2 21 -8 16 -8 23 1 29 24 15 6 45 -28 48 l-32 3 1 -53z m57 25 c-2
-10 -13 -19 -26 -21 -17 -3 -22 2 -22 17 0 16 6 21 26 21 19 0 25 -5 22 -17z"/>
<path d="M5060 2221 c-57 -18 -92 -44 -106 -77 -28 -68 7 -114 87 -114 60 0
107 16 142 49 37 34 35 94 -3 122 -30 22 -86 31 -120 20z"/>
<path d="M1676 2125 c-39 -56 -115 -114 -178 -136 -35 -12 -38 -16 -38 -51 0
-37 1 -38 35 -38 l35 0 0 -222 c0 -199 3 -228 20 -266 15 -33 29 -47 62 -62
62 -28 158 -27 223 4 70 32 80 46 62 88 -13 32 -17 34 -51 30 -65 -8 -66 -4
-66 224 l0 204 49 0 c54 0 53 0 66 73 l6 37 -61 0 -61 0 2 75 c1 41 0 77 -2
79 -2 2 -18 6 -35 9 -29 6 -34 2 -68 -48z"/>
<path d="M3143 2120 c-25 -10 -49 -43 -59 -83 -6 -27 -8 -28 -53 -20 -74 12
-174 7 -228 -11 -108 -36 -183 -137 -183 -249 0 -102 61 -182 170 -221 l62
-23 -59 -25 c-32 -14 -74 -29 -93 -33 -50 -11 -50 -11 -33 -55 l16 -40 79 0
c83 0 98 -9 48 -30 -67 -28 -92 -110 -50 -162 64 -82 307 -89 423 -12 93 62
103 173 19 232 -38 28 -135 59 -213 70 -35 5 -57 11 -49 14 8 3 54 17 102 32
48 15 109 41 135 59 89 59 128 187 88 285 -9 20 -39 61 -68 90 -50 51 -51 54
-33 67 11 8 29 12 41 9 19 -5 24 1 37 48 8 29 13 56 11 61 -6 10 -83 8 -110
-3z m-169 -212 c46 -47 78 -136 80 -226 1 -62 -2 -76 -18 -88 -44 -32 -109 -5
-143 59 -43 84 -58 234 -26 269 26 29 70 23 107 -14z m32 -622 c52 -52 44
-116 -15 -116 -52 0 -76 58 -51 124 13 34 25 33 66 -8z"/>
<path d="M915 1954 c-22 -54 -41 -101 -43 -105 -2 -3 16 -14 38 -23 l41 -16
30 29 c37 37 90 55 142 48 50 -7 68 -25 70 -68 l2 -34 -111 -6 c-143 -9 -163
-13 -207 -50 -49 -40 -76 -95 -83 -168 -21 -196 190 -297 368 -176 l36 25 11
-30 10 -30 135 0 136 0 0 40 c0 33 -3 40 -19 40 -18 0 -20 11 -23 223 l-3 224
-30 48 c-34 55 -76 80 -159 96 -55 10 -163 1 -212 -18 -13 -5 -16 -3 -11 10 7
20 2 23 -43 32 l-35 6 -40 -97z m283 -324 c4 -85 -14 -142 -49 -154 -60 -21
-109 23 -109 99 0 74 55 128 125 122 30 -2 30 -3 33 -67z"/>
<path d="M2071 2028 c-57 -146 -70 -182 -65 -189 2 -5 21 -11 40 -15 28 -5 40
-2 57 14 48 45 134 65 180 41 30 -16 37 -28 37 -66 l0 -33 -102 0 c-165 0
-226 -27 -274 -122 -23 -45 -26 -61 -22 -128 2 -65 7 -82 31 -113 73 -96 215
-111 328 -36 l44 29 9 -30 9 -30 138 0 139 0 0 39 c0 33 -4 40 -22 43 -23 3
-23 4 -28 234 -5 225 -6 231 -30 267 -32 46 -85 76 -159 88 -56 9 -161 1 -203
-16 -13 -5 -18 -2 -18 9 0 16 -37 36 -66 36 -8 0 -18 -10 -23 -22z m249 -423
c0 -108 -14 -135 -70 -135 -50 0 -80 38 -80 102 0 33 6 62 16 77 19 27 68 50
107 51 l27 0 0 -95z"/>
<path d="M5375 1958 c-20 -51 -39 -98 -42 -104 -4 -11 38 -34 62 -34 8 0 34
14 59 31 54 39 119 48 164 25 28 -14 32 -22 32 -55 l0 -39 -122 -4 c-109 -3
-128 -6 -168 -28 -67 -38 -104 -104 -108 -195 -5 -100 24 -157 101 -197 82
-41 165 -34 259 23 l46 28 11 -30 10 -29 135 0 136 0 0 40 c0 32 -4 40 -19 40
-18 0 -19 13 -23 223 -4 211 -5 224 -27 264 -37 64 -85 92 -186 108 -39 6
-153 -7 -191 -22 -13 -5 -16 -3 -11 10 7 20 3 23 -44 32 l-36 7 -38 -94z m275
-353 c0 -82 -3 -98 -20 -115 -20 -20 -54 -26 -85 -14 -42 16 -60 128 -29 173
19 27 68 50 107 51 l27 0 0 -95z"/>
<path d="M448 2016 c-25 -7 -58 -20 -72 -29 -33 -22 -36 -22 -36 8 0 14 -5 25
-11 25 -6 0 -73 -16 -150 -37 l-139 -36 0 -39 c0 -34 3 -38 25 -38 l25 0 0
-320 0 -320 -25 0 c-22 0 -25 -4 -25 -40 l0 -40 196 0 195 0 -3 38 c-3 36 -4
37 -45 40 l-43 3 0 63 0 64 43 -15 c92 -32 221 1 296 76 104 104 142 301 84
432 -57 129 -191 199 -315 165z m8 -155 c47 -29 75 -97 81 -195 10 -153 -25
-227 -107 -230 -34 -1 -46 4 -66 27 -24 28 -24 32 -24 223 l0 194 43 0 c24 0
55 -8 73 -19z"/>
<path d="M3610 2019 c-121 -21 -219 -90 -267 -187 -25 -50 -28 -68 -28 -152 0
-84 3 -102 28 -152 127 -259 576 -261 703 -1 54 109 41 262 -29 355 -82 108
-249 165 -407 137z m119 -128 c87 -81 133 -340 75 -418 -44 -58 -123 -46 -171
26 -71 105 -95 342 -42 400 31 33 98 29 138 -8z"/>
<path d="M4552 2019 c-23 -6 -71 -30 -107 -54 l-65 -43 0 49 c0 31 -4 49 -12
49 -6 0 -73 -17 -150 -37 l-138 -37 0 -39 c0 -34 2 -38 20 -32 20 6 20 2 20
-219 0 -219 -1 -226 -20 -226 -17 0 -20 -7 -20 -40 l0 -40 173 2 172 3 3 37
c3 34 1 37 -25 40 l-28 3 0 190 0 189 34 23 c43 29 110 31 134 5 15 -16 17
-46 17 -215 l0 -197 -25 0 c-22 0 -25 -4 -25 -40 l0 -40 170 0 170 0 0 40 c0
33 -3 40 -20 40 -19 0 -20 7 -20 225 0 236 -5 271 -48 318 -39 44 -131 64
-210 46z"/>
<path d="M5035 1981 l-130 -36 -3 -39 c-3 -37 -2 -38 22 -34 l26 5 0 -223 0
-224 -25 0 c-22 0 -25 -4 -25 -40 l0 -40 175 0 175 0 0 40 c0 36 -2 40 -25 40
l-25 0 0 295 c0 275 -1 295 -17 294 -10 -1 -76 -18 -148 -38z"/>
</g>
</svg>
